<?xml version="1.0" standalone="no"?>
<!DOCTYPE svg PUBLIC "-//W3C//DTD SVG 20010904//EN"
 "http://www.w3.org/TR/2001/REC-SVG-20010904/DTD/svg10.dtd">
<svg version="1.0" xmlns="http://www.w3.org/2000/svg"
 width="1417.000000pt" height="1417.000000pt" viewBox="0 0 1417.000000 1417.000000"
 preserveAspectRatio="xMidYMid meet">
<metadata>
Created by potrace 1.11, written by Peter Selinger 2001-2013
</metadata>
<g transform="translate(0.000000,1417.000000) scale(0.100000,-0.100000)"
fill="#000000" stroke="none">
<path d="M4580 11120 c-129 -8 -216 -29 -275 -66 -130 -80 -182 -116 -250
-174 -80 -68 -272 -276 -315 -340 -14 -20 -37 -55 -53 -77 -15 -22 -30 -50
-32 -63 -2 -12 -10 -30 -18 -39 -7 -9 -18 -28 -24 -43 -26 -61 -117 -164 -189
-215 -78 -56 -251 -89 -329 -63 -21 7 -76 13 -124 14 -82 1 -89 -1 -144 -34
-47 -28 -126 -99 -203 -183 -26 -30 -86 -124 -116 -184 -35 -72 -95 -127 -152
-137 -19 -4 -39 -13 -46 -21 -7 -8 -18 -15 -25 -15 -27 0 -24 -41 5 -73 26
-29 33 -32 105 -35 43 -3 80 0 84 5 3 5 27 17 53 27 26 9 62 28 80 41 18 13
56 36 83 51 28 15 67 40 87 56 69 54 122 71 207 66 77 -5 148 -28 323 -103
201 -87 389 -66 615 70 56 35 151 139 190 211 49 90 101 202 118 253 62 185
221 394 357 469 86 48 159 74 204 74 63 0 154 -41 154 -69 0 -8 4 -12 9 -9 5
3 11 -4 14 -15 5 -19 4 -19 -11 -6 -30 28 -76 39 -152 38 -126 -1 -254 -58
-349 -154 -48 -50 -54 -58 -111 -172 -36 -72 -41 -90 -47 -177 -7 -119 9 -189
62 -267 27 -39 135 -135 170 -151 56 -26 182 -36 242 -20 114 31 222 112 268
200 l17 33 28 -49 c33 -58 101 -124 160 -154 86 -44 175 -59 295 -50 122 10
163 21 247 71 55 33 163 129 193 172 12 17 15 18 15 5 0 -9 -5 -20 -10 -23 -6
-4 -8 -15 -5 -25 7 -22 -13 -38 -21 -16 -9 23 -70 -44 -100 -108 -18 -40 -25
-73 -26 -125 -1 -65 3 -79 36 -143 l37 -70 -38 8 c-21 5 -87 9 -148 9 -105 0
-113 -2 -174 -33 -91 -48 -157 -114 -197 -197 -19 -38 -34 -77 -34 -87 0 -21
-23 -24 -39 -4 -24 29 -135 69 -203 74 -131 9 -242 -41 -326 -146 l-38 -49
-40 33 c-47 41 -130 85 -204 110 -43 15 -83 19 -180 19 -108 -1 -134 -4 -197
-27 -182 -65 -316 -202 -380 -385 -23 -66 -27 -95 -27 -191 -1 -112 -1 -113
-26 -118 -223 -48 -350 -195 -350 -405 0 -38 -3 -69 -6 -69 -3 0 -31 7 -62 16
-109 32 -241 6 -331 -65 l-37 -29 -24 51 c-30 67 -120 156 -191 190 -90 42
-173 52 -271 32 -46 -9 -103 -25 -127 -36 -24 -10 -45 -19 -47 -19 -2 0 -1 33
2 73 10 135 -46 293 -142 397 -99 106 -194 144 -348 138 -52 -2 -100 -9 -108
-15 -7 -6 -33 -21 -57 -33 -90 -45 -181 -162 -220 -281 -22 -69 -37 -240 -30
-344 27 -380 28 -389 48 -405 12 -10 26 -48 41 -110 60 -262 172 -571 234
-650 7 -8 32 -49 56 -90 68 -119 105 -163 238 -293 70 -67 158 -153 197 -192
99 -99 178 -157 270 -200 44 -21 112 -53 150 -71 128 -61 333 -87 485 -63 112
18 286 122 349 209 16 22 32 36 36 32 5 -4 5 -2 1 5 -4 7 2 29 12 50 59 116
55 360 -8 484 -29 55 -111 142 -165 173 -73 43 -187 69 -270 61 -39 -3 -82
-13 -96 -20 -13 -8 -35 -20 -49 -27 -14 -7 -42 -27 -63 -46 -22 -18 -41 -31
-43 -29 -3 3 4 25 16 49 25 55 104 136 156 163 22 10 45 24 53 30 8 5 41 15
75 21 49 9 79 9 151 -3 50 -9 97 -20 105 -27 8 -6 31 -20 50 -30 46 -25 119
-79 120 -89 0 -4 -11 0 -25 9 -40 26 -29 0 14 -32 74 -55 140 -236 146 -404 1
-25 3 -62 4 -83 0 -21 5 -36 10 -33 22 14 22 -58 0 -93 -6 -11 -8 -1 -4 32 3
28 1 47 -5 47 -6 0 -10 -38 -9 -97 1 -81 -3 -109 -24 -163 -51 -135 -110 -225
-143 -219 -22 4 -34 -3 -46 -27 -13 -26 -25 -34 -110 -73 -57 -26 -252 -65
-290 -57 -15 3 -30 1 -33 -4 -4 -7 -13 -6 -25 0 -10 5 -40 10 -66 10 -44 0
-111 10 -206 30 -20 4 -40 4 -45 -1 -5 -5 -30 3 -56 17 -27 14 -62 27 -80 28
-41 5 -58 11 -134 49 -35 17 -63 36 -63 43 0 7 -8 10 -19 7 -15 -4 -18 0 -16
22 4 30 -27 48 -82 47 -28 0 -46 13 -125 92 -158 156 -193 199 -244 296 -16
30 -34 59 -41 63 -23 14 -100 122 -106 148 -4 14 -17 37 -29 51 -27 30 -104
173 -89 163 19 -11 12 7 -28 82 -22 39 -47 100 -57 135 -9 35 -23 74 -30 88
-20 40 -72 278 -79 360 -4 41 -11 86 -16 100 -4 14 -16 72 -25 130 -20 126
-29 784 -14 970 11 123 29 230 39 230 3 0 7 33 7 73 2 63 13 129 44 257 5 19
15 62 23 95 69 293 209 624 316 746 49 56 181 149 212 149 16 0 19 -8 19 -58
0 -94 23 -153 85 -221 68 -73 115 -94 210 -93 88 0 140 19 215 78 69 54 95 86
137 169 69 138 99 289 82 411 -19 138 -38 182 -108 257 -56 61 -138 116 -211
144 -75 29 -257 40 -320 20 -25 -8 -58 -18 -75 -22 -31 -7 -104 -46 -127 -68
-7 -7 -40 -33 -73 -59 -64 -49 -78 -63 -140 -148 -82 -111 -143 -219 -204
-360 -34 -80 -78 -180 -97 -222 -41 -94 -104 -274 -138 -401 -14 -52 -38 -121
-52 -153 -14 -32 -25 -60 -24 -62 5 -5 -59 -316 -99 -482 -17 -69 -35 -168
-41 -220 -6 -52 -20 -165 -30 -250 -24 -185 -29 -510 -10 -650 6 -52 12 -111
12 -130 -1 -71 40 -388 65 -500 14 -63 29 -133 33 -155 5 -22 20 -79 34 -128
14 -48 26 -96 26 -106 0 -22 48 -162 90 -260 18 -41 43 -109 57 -150 37 -115
118 -276 198 -396 24 -35 36 -55 72 -115 14 -25 47 -70 73 -100 25 -30 57 -71
70 -90 50 -73 153 -178 296 -300 26 -22 151 -106 349 -233 104 -67 220 -125
262 -132 21 -3 46 -11 57 -16 30 -17 158 -57 203 -64 24 -4 45 -10 48 -15 3
-4 35 -11 72 -15 38 -4 75 -11 83 -15 15 -7 153 1 259 15 38 6 52 5 47 -3 -22
-36 141 -10 240 38 33 17 65 30 70 30 14 0 142 77 177 107 16 13 61 39 100 58
40 19 97 55 127 81 82 69 220 205 220 217 0 6 8 20 19 31 21 23 84 112 139
196 19 30 43 63 53 73 14 16 30 48 59 122 5 11 18 41 30 67 11 25 24 64 27 85
3 21 12 50 20 66 7 15 16 70 19 122 6 107 13 93 -100 189 -31 26 -62 60 -67
75 -31 80 -30 229 3 291 10 19 18 39 18 45 0 26 33 93 45 89 7 -3 21 10 32 29
24 40 56 80 96 118 15 15 27 31 27 36 0 5 14 25 30 45 25 30 40 38 78 44 26 3
56 11 67 17 11 6 27 12 35 13 8 1 50 9 92 18 42 9 100 18 128 20 90 7 266 -41
316 -86 12 -11 28 -18 35 -16 39 8 270 -183 324 -268 61 -96 109 -250 85 -279
-7 -9 -8 -15 0 -20 16 -10 12 -45 -5 -45 -8 0 -15 4 -15 8 0 5 -16 14 -35 22
-19 8 -35 17 -35 20 0 12 -95 40 -140 41 -98 3 -185 -39 -286 -139 -61 -59
-96 -118 -130 -217 -16 -47 -21 -175 -10 -224 9 -39 74 -131 101 -143 14 -6
25 -14 25 -18 0 -4 24 -20 53 -36 49 -27 58 -29 164 -28 67 1 126 7 145 15 51
20 146 87 159 112 7 12 18 27 26 32 15 11 46 131 38 145 -3 4 -22 4 -42 -1
-23 -5 -39 -4 -41 1 -5 14 -22 12 -54 -4 -26 -14 -29 -13 -43 7 -19 27 -19 46
2 99 22 58 25 60 80 64 66 5 82 -10 93 -85 16 -113 80 -222 169 -287 54 -39
150 -78 183 -73 46 6 68 -2 68 -23 1 -21 8 -50 54 -208 21 -72 77 -199 100
-228 12 -15 34 -47 50 -71 67 -105 279 -277 370 -302 53 -15 299 -15 352 0 91
25 303 197 370 302 16 24 38 56 50 71 23 29 79 156 100 228 46 158 53 187 54
208 0 21 22 29 68 23 33 -5 129 34 183 73 89 65 153 174 169 287 11 75 27 90
93 85 55 -4 58 -6 80 -64 21 -53 21 -72 2 -99 -14 -20 -17 -21 -43 -7 -32 16
-49 18 -54 4 -2 -5 -18 -6 -41 -1 -20 5 -39 5 -42 1 -8 -14 23 -134 38 -145 8
-5 19 -20 26 -32 13 -25 108 -92 159 -112 19 -8 78 -14 145 -15 106 -1 115 1
165 28 28 16 52 32 52 36 0 4 11 12 25 18 27 12 92 104 101 143 11 49 6 177
-10 224 -34 99 -69 158 -130 217 -101 100 -188 142 -286 139 -45 -1 -140 -29
-140 -41 0 -3 -16 -12 -35 -20 -19 -8 -35 -17 -35 -22 0 -4 -7 -8 -15 -8 -17
0 -21 35 -5 45 8 5 7 11 0 20 -24 29 24 183 85 279 54 85 285 276 324 268 7
-2 23 5 35 16 50 45 226 93 316 86 28 -2 86 -11 128 -20 42 -9 84 -17 92 -18
8 -1 24 -7 35 -13 11 -6 41 -14 67 -17 38 -6 53 -14 78 -44 16 -20 30 -40 30
-45 0 -5 12 -21 28 -36 39 -38 71 -78 95 -118 11 -19 25 -32 32 -29 12 4 45
-63 45 -89 0 -6 8 -26 18 -45 33 -62 34 -211 3 -291 -5 -15 -36 -49 -67 -75
-113 -96 -106 -82 -100 -189 3 -52 12 -107 19 -122 8 -16 17 -45 20 -66 3 -21
16 -60 27 -85 12 -26 25 -56 30 -67 29 -74 45 -106 59 -122 10 -10 34 -43 53
-73 55 -84 118 -173 139 -196 11 -11 19 -25 19 -31 0 -12 138 -148 220 -217
30 -26 87 -62 127 -81 39 -19 84 -45 100 -58 35 -30 163 -107 177 -107 5 0 37
-13 70 -30 99 -48 262 -74 240 -38 -5 8 9 9 47 3 106 -14 244 -22 259 -15 8 4
45 11 83 15 37 4 69 11 72 15 3 5 24 11 48 15 45 7 173 47 203 64 11 5 36 13
57 16 42 7 158 65 262 132 198 127 323 211 349 233 143 122 246 227 296 300
13 19 45 60 70 90 26 30 59 75 73 100 36 60 48 80 72 115 80 120 161 281 198
396 14 41 39 109 57 150 42 98 90 238 90 260 0 10 12 58 26 106 14 49 29 106
34 128 4 22 19 92 33 155 25 112 66 429 65 500 0 19 6 78 12 130 19 140 14
465 -10 650 -10 85 -24 198 -30 250 -6 52 -24 151 -41 220 -35 145 -102 467
-102 487 1 5 -10 32 -23 62 -13 30 -36 96 -50 148 -34 127 -97 307 -138 401
-19 42 -63 142 -97 222 -61 141 -122 249 -204 360 -62 85 -76 99 -140 148 -33
26 -66 52 -73 59 -23 22 -96 61 -127 68 -16 4 -50 14 -75 22 -63 20 -245 9
-320 -20 -73 -28 -155 -83 -211 -144 -70 -75 -89 -119 -108 -257 -17 -122 13
-273 82 -411 42 -83 68 -115 137 -169 75 -59 127 -78 215 -78 95 -1 142 20
210 93 62 68 85 127 85 221 0 50 3 58 19 58 31 0 163 -93 212 -149 107 -122
247 -453 316 -746 8 -33 18 -76 23 -95 31 -128 42 -194 44 -257 0 -40 4 -73 7
-73 10 0 28 -107 39 -230 15 -186 6 -844 -14 -970 -9 -58 -21 -116 -25 -130
-5 -14 -12 -59 -16 -100 -7 -82 -59 -320 -79 -360 -7 -14 -21 -53 -30 -88 -10
-35 -35 -96 -57 -135 -40 -75 -47 -93 -28 -82 15 10 -62 -133 -89 -163 -12
-14 -25 -37 -29 -51 -6 -26 -83 -134 -106 -148 -7 -4 -25 -33 -41 -63 -51 -97
-86 -140 -244 -296 -79 -79 -97 -92 -125 -92 -55 1 -86 -17 -82 -47 2 -22 -1
-26 -16 -22 -11 3 -19 0 -19 -7 0 -7 -28 -26 -62 -43 -77 -38 -94 -44 -135
-49 -18 -1 -53 -14 -80 -28 -26 -14 -51 -22 -56 -17 -5 5 -25 5 -45 1 -95 -20
-162 -30 -206 -30 -26 0 -56 -5 -66 -10 -12 -6 -21 -7 -25 0 -3 5 -18 7 -33 4
-38 -8 -233 31 -290 57 -85 39 -97 47 -110 73 -12 24 -24 31 -46 27 -33 -6
-92 84 -143 219 -21 54 -25 82 -24 163 1 59 -3 97 -9 97 -6 0 -8 -19 -5 -47 4
-33 2 -43 -4 -32 -22 35 -22 107 0 93 5 -3 10 12 10 33 1 21 3 58 4 83 6 168
72 349 146 404 43 32 54 58 14 32 -14 -9 -25 -13 -25 -9 1 10 74 64 120 89 19
10 42 24 50 30 8 7 56 18 105 27 72 12 102 12 151 3 34 -6 67 -16 75 -21 8 -6
31 -20 53 -30 52 -27 131 -108 156 -163 12 -24 19 -46 16 -49 -2 -2 -21 11
-43 29 -21 19 -49 39 -63 46 -14 7 -36 19 -49 27 -14 7 -57 17 -96 20 -83 8
-197 -18 -270 -61 -54 -31 -136 -118 -165 -173 -63 -124 -67 -368 -8 -484 10
-21 16 -43 12 -50 -4 -7 -4 -9 1 -5 4 4 20 -10 36 -32 63 -87 237 -191 349
-209 152 -24 357 2 485 63 39 18 106 50 150 71 92 43 171 101 270 200 39 39
127 125 197 192 133 130 170 174 238 293 24 41 49 82 56 90 62 79 174 388 234
650 15 62 29 100 41 110 20 16 21 25 48 405 7 104 -8 275 -30 344 -39 119
-130 236 -220 281 -24 12 -50 27 -57 33 -8 6 -56 13 -108 15 -154 6 -249 -32
-348 -138 -96 -104 -152 -262 -142 -397 3 -40 4 -73 2 -73 -2 0 -23 9 -47 19
-24 11 -81 27 -127 36 -98 20 -181 10 -271 -32 -71 -34 -161 -123 -191 -190
l-24 -51 -37 29 c-90 71 -222 97 -331 65 -31 -9 -59 -16 -62 -16 -3 0 -6 31
-6 69 0 210 -127 357 -350 405 -25 5 -25 6 -26 118 0 96 -4 125 -27 191 -64
183 -198 320 -380 385 -63 23 -89 26 -197 27 -97 0 -137 -4 -180 -19 -74 -25
-157 -69 -204 -110 l-40 -33 -38 49 c-84 105 -195 155 -326 146 -68 -5 -179
-45 -203 -74 -16 -20 -39 -17 -39 4 0 10 -15 49 -34 87 -40 83 -106 149 -197
197 -61 31 -69 33 -174 33 -60 0 -127 -4 -148 -9 l-38 -8 37 70 c33 64 37 78
36 143 -1 52 -8 85 -26 125 -30 64 -91 131 -100 108 -8 -22 -28 -6 -21 16 3
10 1 21 -5 25 -5 3 -10 14 -10 23 0 13 3 12 15 -5 30 -43 138 -139 193 -172
84 -50 125 -61 247 -71 120 -9 209 6 295 50 59 30 127 96 160 154 l28 49 17
-33 c46 -88 154 -169 268 -200 60 -16 186 -6 242 20 35 16 143 112 170 151 53
78 69 148 62 267 -6 87 -11 105 -47 177 -57 114 -63 122 -111 172 -95 96 -223
153 -349 154 -76 1 -122 -10 -152 -38 -15 -13 -16 -13 -11 6 3 11 9 18 14 15
5 -3 9 1 9 9 0 28 91 69 154 69 45 0 118 -26 204 -74 136 -75 295 -284 357
-469 17 -51 69 -163 118 -253 39 -72 134 -176 190 -211 226 -136 414 -157 615
-70 301 130 403 137 530 37 20 -16 60 -41 87 -56 28 -15 65 -38 83 -51 18 -13
54 -32 80 -41 26 -10 50 -22 53 -27 4 -5 41 -8 84 -5 72 3 79 6 105 35 29 32
32 73 5 73 -7 0 -18 7 -25 15 -7 8 -27 17 -46 21 -57 10 -117 65 -152 137 -30
60 -90 154 -116 184 -77 84 -156 155 -203 183 -55 33 -62 35 -144 34 -48 -1
-103 -7 -124 -14 -78 -26 -251 7 -329 63 -72 51 -163 154 -189 215 -6 15 -17
34 -24 43 -8 9 -16 27 -18 39 -2 13 -17 41 -32 63 -16 22 -39 57 -53 77 -43
64 -235 272 -315 340 -68 58 -121 95 -251 175 -70 43 -183 64 -355 67 l-154 3
-77 -38 c-43 -20 -82 -37 -87 -37 -14 0 -211 -148 -211 -159 0 -5 -20 -33 -45
-63 -43 -53 -84 -147 -85 -195 0 -49 -7 -51 -78 -15 -118 58 -249 59 -360 3
-57 -29 -169 -135 -207 -196 -11 -16 -20 -31 -21 -33 -1 -2 -24 11 -50 29 -27
18 -60 40 -74 49 -54 36 -118 53 -162 44 -24 -4 -74 -7 -113 -7 -40 0 -73 -4
-77 -10 -13 -22 -19 2 -6 25 8 15 13 57 12 123 0 86 -5 110 -28 168 -34 82
-95 152 -179 205 -109 69 -215 92 -417 92 -202 0 -308 -23 -417 -92 -84 -53
-145 -123 -179 -205 -23 -58 -28 -82 -28 -168 -1 -66 4 -108 12 -123 13 -23 7
-47 -6 -25 -4 6 -37 10 -77 10 -38 0 -89 3 -113 7 -44 9 -108 -8 -162 -44 -14
-9 -47 -31 -74 -49 -26 -18 -49 -31 -50 -29 -1 2 -10 17 -21 33 -38 61 -150
167 -207 196 -111 56 -242 55 -360 -3 -71 -36 -78 -34 -78 15 -1 48 -42 142
-85 195 -25 30 -45 58 -45 63 0 11 -197 159 -211 159 -5 0 -42 15 -82 34 -85
41 -145 47 -317 36z m1865 -940 c-3 -5 -12 -10 -20 -10 -7 0 -16 -7 -19 -16
-5 -13 -4 -14 7 -5 8 6 36 14 63 17 27 3 61 10 76 16 38 14 83 1 115 -34 16
-16 35 -33 44 -36 13 -6 64 -61 121 -131 18 -22 38 -120 40 -196 1 -61 -3 -79
-32 -139 -19 -37 -43 -74 -54 -82 -54 -38 -102 -67 -183 -110 -49 -26 -106
-60 -128 -76 -22 -15 -60 -43 -85 -61 -79 -57 -241 -243 -279 -322 -111 -225
-141 -346 -141 -570 1 -115 5 -155 24 -225 27 -98 91 -228 138 -282 66 -75
189 -175 231 -188 23 -8 47 -17 53 -22 20 -14 139 -50 194 -58 30 -4 107 -18
170 -30 165 -33 435 -33 600 0 63 12 140 26 170 30 55 8 174 44 194 58 6 5 30
14 53 22 42 13 165 113 231 188 47 54 111 184 138 282 19 70 23 110 24 225 0
224 -30 345 -141 570 -38 79 -200 265 -279 322 -25 18 -63 46 -85 61 -22 16
-79 50 -128 76 -81 43 -129 72 -183 110 -11 8 -35 45 -54 82 -29 60 -33 78
-32 139 2 76 22 174 40 196 57 70 108 125 121 131 9 3 28 20 44 36 32 35 77
48 115 34 15 -6 49 -13 76 -16 27 -3 55 -11 63 -17 11 -9 12 -8 7 5 -3 9 -12
16 -19 16 -8 0 -16 4 -19 9 -10 15 77 -9 97 -27 10 -9 25 -17 34 -18 21 -3 70
-51 70 -69 0 -8 -3 -12 -6 -9 -3 3 -6 10 -6 16 0 6 -10 17 -22 25 -18 12 -21
12 -19 0 1 -8 10 -22 19 -32 17 -16 17 -18 0 -30 -10 -7 -21 -11 -25 -9 -5 3
-8 -2 -8 -10 0 -25 -37 -29 -59 -7 -62 62 -175 80 -253 40 -117 -60 -162 -198
-102 -317 29 -58 99 -126 177 -170 47 -27 267 -230 267 -247 0 -12 64 -75 76
-75 7 0 34 -26 62 -57 59 -69 164 -285 178 -366 4 -26 48 -185 57 -207 3 -8 8
-33 12 -55 28 -186 26 -319 -6 -442 -11 -40 -19 -83 -19 -95 0 -25 -22 -93
-33 -104 -4 -4 -7 -15 -7 -23 0 -9 -9 -33 -20 -54 -11 -20 -20 -44 -20 -52 0
-29 -90 -143 -255 -325 -42 -47 -83 -96 -90 -110 -12 -24 -16 -64 -19 -200
l-1 -65 61 -7 c67 -7 147 -42 180 -80 57 -61 96 -141 110 -220 22 -126 6 -366
-29 -439 -10 -19 -19 -55 -22 -79 -2 -24 -9 -48 -15 -54 -5 -5 -10 -18 -10
-28 0 -10 -4 -18 -10 -18 -16 0 -60 -54 -60 -74 0 -33 -132 -131 -200 -148
-19 -5 -44 -13 -55 -17 -62 -26 -78 -31 -94 -31 -16 0 -18 -11 -19 -107 -2
-123 -14 -192 -50 -283 -42 -104 -77 -164 -106 -178 -14 -7 -31 -23 -37 -35
-19 -38 -102 -118 -138 -133 -18 -8 -44 -14 -56 -14 -13 0 -26 -7 -29 -16 -3
-8 -16 -15 -28 -14 -40 4 -54 1 -40 -8 6 -5 -24 -8 -68 -8 -44 0 -74 3 -68 8
14 9 0 12 -40 8 -12 -1 -25 6 -28 14 -3 9 -16 16 -29 16 -12 0 -38 6 -56 14
-36 15 -119 95 -138 133 -6 12 -23 28 -37 35 -29 14 -64 74 -106 178 -36 91
-48 160 -50 283 -1 96 -3 107 -19 107 -16 0 -32 5 -94 31 -11 4 -36 12 -55 17
-68 17 -200 115 -200 148 0 20 -44 74 -60 74 -6 0 -10 8 -10 18 0 10 -5 23
-10 28 -6 6 -13 30 -15 54 -3 24 -12 60 -22 79 -35 73 -51 313 -29 439 14 79
53 159 110 220 33 38 113 73 180 80 l61 7 -1 65 c-3 136 -7 176 -19 200 -7 14
-48 63 -90 110 -165 182 -255 296 -255 325 0 8 -9 32 -20 52 -11 21 -20 45
-20 54 0 8 -3 19 -7 23 -11 11 -33 79 -33 104 0 12 -8 55 -19 95 -32 123 -34
256 -6 442 4 22 9 47 12 55 9 22 53 181 57 207 14 81 119 297 178 366 28 31
55 57 62 57 12 0 76 63 76 75 0 17 220 220 267 247 78 44 148 112 177 170 60
119 15 257 -102 317 -78 40 -191 22 -253 -40 -22 -22 -59 -18 -59 7 0 8 -3 13
-8 10 -4 -2 -15 2 -25 9 -17 12 -17 14 0 30 9 10 18 24 19 32 2 12 -1 12 -19
0 -12 -8 -22 -19 -22 -25 0 -6 -3 -13 -6 -16 -3 -3 -6 1 -6 9 0 18 49 66 70
69 9 1 24 10 35 19 10 9 36 21 58 26 21 5 40 9 42 10 2 1 0 -3 -3 -9z m-195
-150 c0 -5 -5 -10 -11 -10 -5 0 -7 5 -4 10 3 6 8 10 11 10 2 0 4 -4 4 -10z
m1675 0 c3 -5 1 -10 -4 -10 -6 0 -11 5 -11 10 0 6 2 10 4 10 3 0 8 -4 11 -10z
m-4305 -3688 c-7 -13 -9 -8 -9 23 0 35 1 37 10 17 6 -15 5 -30 -1 -40z m6930
21 c-1 -28 -3 -34 -10 -22 -8 14 -3 59 6 59 2 0 4 -17 4 -37z m-8353 -488 c36
-32 26 -32 -17 0 -19 14 -29 25 -23 25 7 0 25 -11 40 -25z m9783 0 c-19 -14
-36 -25 -39 -25 -11 1 50 50 62 50 6 0 -4 -11 -23 -25z"/>
<path d="M6840 7374 c-218 -58 -256 -77 -379 -193 -60 -57 -72 -74 -68 -93 9
-31 -27 -84 -66 -97 -89 -32 -182 -136 -225 -254 -24 -65 -26 -85 -26 -215 0
-109 -3 -141 -13 -138 -7 3 -10 -1 -6 -10 3 -7 12 -14 19 -14 8 0 19 -12 25
-27 69 -188 207 -308 421 -367 l56 -16 5 -47 c8 -85 47 -215 85 -286 75 -140
183 -218 332 -239 217 -32 393 53 492 239 38 71 77 201 85 286 l5 47 56 16
c214 59 352 179 421 367 6 15 17 27 25 27 7 0 16 7 19 14 4 9 1 13 -6 10 -10
-3 -13 29 -13 138 0 130 -2 150 -26 215 -43 118 -136 222 -225 254 -39 13 -75
66 -66 97 4 19 -8 36 -68 93 -123 116 -166 138 -384 194 -80 20 -396 20 -475
-1z"/>
<path d="M6260 7035 c-7 -8 -31 -20 -54 -27 -22 -6 -34 -13 -26 -15 20 -5 110
35 110 47 0 15 -16 12 -30 -5z"/>
<path d="M7870 7040 c0 -12 90 -52 110 -47 8 2 -4 9 -26 15 -23 7 -47 19 -54
27 -14 17 -30 20 -30 5z"/>
<path d="M6166 6127 c3 -10 9 -15 12 -12 3 3 0 11 -7 18 -10 9 -11 8 -5 -6z"/>
<path d="M7985 6129 c-4 -6 -5 -12 -2 -15 2 -3 7 2 10 11 7 17 1 20 -8 4z"/>
<path d="M6965 5130 c4 -6 11 -8 16 -5 14 9 11 15 -7 15 -8 0 -12 -5 -9 -10z"/>
<path d="M7175 5130 c4 -6 11 -8 16 -5 14 9 11 15 -7 15 -8 0 -12 -5 -9 -10z"/>
<path d="M3465 10230 c-3 -5 -1 -10 4 -10 6 0 11 5 11 10 0 6 -2 10 -4 10 -3
0 -8 -4 -11 -10z"/>
<path d="M10680 10230 c0 -5 5 -10 11 -10 5 0 7 5 4 10 -3 6 -8 10 -11 10 -2
0 -4 -4 -4 -10z"/>
<path d="M3315 10080 c-3 -5 1 -10 9 -10 9 0 16 5 16 10 0 6 -4 10 -9 10 -6 0
-13 -4 -16 -10z"/>
<path d="M10820 10080 c0 -5 7 -10 16 -10 8 0 12 5 9 10 -3 6 -10 10 -16 10
-5 0 -9 -4 -9 -10z"/>
<path d="M1330 7403 c0 -4 5 -15 10 -23 8 -13 10 -13 10 2 0 9 -4 20 -10 23
-5 3 -10 3 -10 -2z"/>
<path d="M12817 7403 c-4 -3 -7 -13 -7 -22 1 -13 3 -13 11 2 11 19 8 33 -4 20z"/>
<path d="M3344 6885 c21 -16 32 -13 21 4 -3 6 -14 11 -23 11 -15 -1 -15 -2 2
-15z"/>
<path d="M10795 6889 c-11 -17 0 -20 21 -4 17 13 17 14 2 15 -9 0 -20 -5 -23
-11z"/>
<path d="M1530 6806 c0 -8 4 -17 9 -20 5 -4 7 3 4 14 -6 23 -13 26 -13 6z"/>
<path d="M12617 6801 c-4 -17 -3 -21 5 -13 5 5 8 16 6 23 -3 8 -7 3 -11 -10z"/>
<path d="M1586 6680 c11 -40 53 -117 54 -98 0 9 -4 20 -10 23 -5 3 -10 14 -10
23 0 9 -9 31 -21 47 -19 28 -20 28 -13 5z"/>
<path d="M12558 6668 c-36 -76 -41 -88 -36 -93 3 -3 17 22 32 56 29 62 31 95
4 37z"/>
<path d="M5686 6561 c5 -5 20 -12 34 -16 24 -7 24 -7 5 9 -21 16 -56 23 -39 7z"/>
<path d="M8435 6554 c-19 -16 -19 -16 5 -9 31 9 50 25 30 25 -8 0 -24 -8 -35
-16z"/>
<path d="M1645 6538 c4 -13 11 -27 16 -33 5 -5 4 5 -2 23 -12 36 -24 44 -14
10z"/>
<path d="M12502 6531 c-6 -17 -9 -31 -6 -31 7 0 25 52 20 57 -2 2 -8 -10 -14
-26z"/>
<path d="M5765 6540 c3 -5 19 -10 35 -10 15 0 31 -6 33 -12 4 -8 6 -7 6 3 1
16 -26 29 -62 29 -10 0 -15 -4 -12 -10z"/>
<path d="M8338 6543 c-10 -2 -18 -12 -17 -21 0 -11 2 -12 6 -4 2 6 18 12 33
12 16 0 32 5 35 10 6 10 -24 12 -57 3z"/>
<path d="M5105 6520 c-51 -3 -105 -14 -125 -23 -78 -38 -136 -77 -155 -105
-11 -16 -39 -55 -62 -85 -24 -31 -43 -59 -43 -62 0 -4 -10 -21 -23 -38 -12
-18 -23 -36 -23 -42 0 -5 -8 -45 -18 -88 -31 -132 -13 -337 40 -457 32 -73 41
-85 120 -159 115 -107 203 -134 357 -108 40 7 47 6 47 -8 0 -8 7 -18 15 -21 8
-4 15 -15 15 -27 0 -17 12 -63 27 -102 2 -5 14 -28 28 -50 13 -22 29 -51 35
-64 19 -42 96 -105 181 -148 84 -42 85 -42 214 -46 119 -4 136 -2 205 21 89
30 168 93 234 186 53 75 69 106 101 194 33 92 32 136 -5 203 -16 30 -30 60
-30 67 0 21 -60 103 -109 150 l-44 42 -86 0 c-47 0 -96 -3 -108 -6 -27 -7 -31
-39 -7 -48 9 -4 14 -9 10 -13 -3 -3 1 -15 10 -25 13 -13 14 -21 6 -31 -6 -7
-14 -33 -17 -57 -3 -25 -2 -39 1 -32 3 6 10 12 14 12 15 0 2 -42 -21 -66 -12
-13 -19 -30 -16 -38 8 -20 -44 -60 -102 -81 -70 -24 -131 -20 -177 14 -58 43
-91 82 -101 121 -10 39 -6 73 8 65 5 -4 9 2 9 12 0 10 9 24 20 31 11 7 20 21
20 33 0 18 -4 19 -37 13 -21 -4 -60 -15 -86 -25 -26 -11 -72 -19 -101 -19 -47
0 -60 5 -96 35 -23 19 -45 35 -50 35 -4 0 -10 7 -14 15 -4 12 -1 12 21 -2 26
-17 26 -17 14 5 -7 13 -25 25 -42 29 -34 7 -57 44 -84 137 -26 90 -12 265 28
346 9 18 17 39 17 46 0 7 14 24 31 36 20 15 29 29 25 41 -3 13 10 28 47 55 29
20 61 42 72 48 34 19 29 40 -19 68 -24 14 -53 25 -63 24 -10 -1 -58 -4 -108
-8z m835 -935 c0 -26 -3 -33 -15 -29 -17 7 -17 9 -9 42 9 34 24 26 24 -13z"/>
<path d="M8882 6503 c-46 -27 -51 -48 -17 -67 11 -6 43 -28 72 -48 37 -27 50
-42 47 -55 -4 -12 5 -26 25 -41 17 -12 31 -29 31 -36 0 -7 8 -28 17 -46 40
-81 54 -256 28 -346 -27 -93 -50 -130 -84 -137 -17 -4 -35 -16 -42 -29 -12
-22 -12 -22 14 -5 22 14 25 14 21 2 -4 -8 -10 -15 -14 -15 -5 0 -27 -16 -50
-35 -36 -30 -49 -35 -96 -35 -29 0 -75 8 -101 19 -26 10 -65 21 -85 25 -34 6
-38 5 -38 -13 0 -12 9 -26 20 -33 11 -7 20 -21 20 -31 0 -10 4 -16 9 -12 14 8
18 -26 8 -65 -10 -39 -43 -78 -101 -121 -46 -34 -107 -38 -177 -14 -58 21
-110 61 -102 81 3 8 -4 25 -16 38 -23 24 -36 66 -21 66 4 0 11 -6 14 -12 3 -7
4 7 1 32 -3 24 -11 50 -17 57 -8 10 -7 18 6 31 9 10 13 22 10 25 -4 4 1 9 10
13 24 9 20 41 -6 48 -13 3 -62 6 -109 6 l-86 0 -44 -42 c-49 -47 -109 -129
-109 -150 0 -7 -14 -37 -30 -67 -37 -67 -38 -111 -5 -203 32 -88 48 -119 101
-194 66 -93 145 -156 234 -186 69 -23 86 -25 205 -21 129 4 130 4 214 46 85
43 162 106 181 148 6 13 22 42 35 64 14 22 26 45 28 50 15 39 27 85 27 102 0
12 7 23 15 27 8 3 15 13 15 21 0 14 7 15 48 8 77 -13 163 -8 221 12 64 24 209
154 235 212 10 21 21 47 27 58 45 99 62 318 33 442 -10 43 -18 83 -18 88 0 6
-11 24 -23 42 -13 17 -23 34 -23 38 0 3 -19 31 -42 62 -24 30 -52 70 -64 87
-12 17 -42 41 -67 54 -26 13 -49 27 -52 32 -11 18 -104 38 -195 43 -88 5 -98
3 -138 -20z m-638 -905 c8 -33 8 -35 -9 -42 -12 -4 -15 3 -15 29 0 39 15 47
24 13z"/>
<path d="M3220 5768 c-39 -19 -58 -33 -49 -35 13 -3 108 44 128 63 13 12 -22
0 -79 -28z"/>
<path d="M10861 5796 c20 -19 115 -66 128 -63 9 2 -11 17 -51 35 -59 29 -89
39 -77 28z"/>
<path d="M5935 5780 c3 -5 13 -10 21 -10 8 0 12 5 9 10 -3 6 -13 10 -21 10 -8
0 -12 -4 -9 -10z"/>
<path d="M8195 5780 c-3 -5 1 -10 9 -10 8 0 18 5 21 10 3 6 -1 10 -9 10 -8 0
-18 -4 -21 -10z"/>
<path d="M2563 5763 c9 -2 23 -2 30 0 6 3 -1 5 -18 5 -16 0 -22 -2 -12 -5z"/>
<path d="M11573 5763 c9 -2 23 -2 30 0 6 3 -1 5 -18 5 -16 0 -22 -2 -12 -5z"/>
<path d="M2645 5740 c22 -10 51 -19 65 -19 16 0 5 7 -30 19 -69 24 -87 24 -35
0z"/>
<path d="M11475 5740 c-35 -13 -42 -18 -25 -18 14 0 43 8 65 18 51 23 26 23
-40 0z"/>
<path d="M5220 5692 c0 -5 11 -14 25 -20 29 -13 33 -5 8 14 -21 15 -33 18 -33
6z"/>
<path d="M8908 5686 c-26 -19 -22 -27 7 -14 14 6 25 15 25 20 0 12 -12 9 -32
-6z"/>
<path d="M5260 5645 c0 -12 56 -26 79 -20 20 5 22 8 10 16 -15 9 -89 13 -89 4z"/>
<path d="M5395 5640 c-3 -6 1 -7 9 -4 18 7 21 14 7 14 -6 0 -13 -4 -16 -10z"/>
<path d="M8740 5646 c0 -2 7 -7 16 -10 8 -3 12 -2 9 4 -6 10 -25 14 -25 6z"/>
<path d="M8811 5641 c-12 -8 -10 -11 10 -16 23 -6 79 8 79 20 0 9 -74 5 -89
-4z"/>
<path d="M5515 5551 c-3 -5 -1 -12 5 -16 5 -3 10 1 10 9 0 18 -6 21 -15 7z"/>
<path d="M8630 5544 c0 -8 5 -12 10 -9 6 4 8 11 5 16 -9 14 -15 11 -15 -7z"/>
<path d="M5580 5426 c0 -2 7 -9 15 -16 12 -10 15 -10 15 4 0 9 -7 16 -15 16
-8 0 -15 -2 -15 -4z"/>
<path d="M8550 5414 c0 -14 3 -14 15 -4 8 7 15 14 15 16 0 2 -7 4 -15 4 -8 0
-15 -7 -15 -16z"/>
<path d="M5065 4720 c-36 -14 -44 -34 -59 -141 -16 -119 -33 -423 -28 -516 2
-35 1 -63 -2 -63 -4 0 -43 18 -88 41 -113 57 -159 69 -263 69 -142 0 -202 -14
-308 -71 -131 -71 -203 -142 -257 -253 -59 -122 -70 -214 -42 -352 24 -116 41
-165 89 -257 29 -56 47 -75 102 -114 95 -66 177 -87 306 -80 55 4 127 13 160
22 61 16 192 68 276 111 l46 23 5 -115 c4 -87 9 -119 22 -133 9 -9 16 -29 16
-42 0 -62 62 -93 125 -63 46 22 123 107 147 164 11 25 27 61 36 80 33 72 22
237 -28 400 -25 82 -40 217 -41 390 l-2 185 53 155 c48 142 52 161 48 222 -5
57 -12 79 -48 140 -24 40 -52 82 -62 93 -10 11 -30 35 -44 53 -44 55 -104 75
-159 52z m-214 -1019 c80 -25 133 -59 137 -88 2 -15 -12 -32 -58 -67 -33 -25
-67 -46 -75 -46 -7 0 -16 -4 -20 -9 -3 -5 -20 -7 -39 -4 -44 7 -76 -11 -76
-42 0 -19 -5 -25 -22 -25 -13 0 -36 -7 -51 -15 -52 -27 -111 -39 -189 -40 -55
0 -78 4 -78 12 0 7 -16 25 -35 40 -19 15 -35 35 -35 44 0 34 62 135 105 170
40 34 145 81 205 93 49 9 166 -2 231 -23z"/>
<path d="M6713 4686 c-53 -24 -62 -49 -65 -177 -1 -62 3 -203 11 -313 7 -109
10 -200 8 -202 -2 -2 -46 12 -98 31 -148 57 -180 65 -251 65 -234 0 -374 -64
-499 -228 -70 -93 -84 -141 -84 -297 0 -124 2 -134 34 -216 61 -157 152 -251
282 -289 169 -51 346 -6 551 137 l78 55 0 -98 c0 -109 17 -221 37 -245 7 -8
13 -27 13 -41 0 -14 9 -37 21 -52 25 -31 84 -36 129 -9 29 17 67 93 107 213
26 81 25 367 -3 425 -18 37 -19 64 -17 370 1 182 7 362 13 400 30 199 22 250
-59 356 -91 120 -138 146 -208 115z m-213 -956 c85 -34 93 -39 80 -55 -6 -8
-10 -26 -9 -42 5 -60 0 -71 -45 -97 -53 -31 -52 -31 -59 -6 -7 27 -57 28 -64
1 -3 -14 -15 -21 -37 -23 -27 -3 -31 -7 -34 -35 -4 -36 -30 -50 -115 -63 -60
-8 -144 17 -170 52 -17 22 -17 28 -3 82 24 93 82 167 156 201 51 23 225 14
300 -15z"/>
<path d="M7558 4594 c-15 -8 -32 -23 -38 -34 -15 -27 -12 -122 4 -145 7 -11
17 -36 21 -55 4 -19 16 -44 26 -55 55 -60 69 -242 49 -610 -11 -215 -14 -234
-41 -303 -38 -95 -78 -174 -95 -187 -8 -5 -17 -38 -20 -72 -6 -53 -4 -64 10
-69 10 -4 16 -18 16 -41 0 -63 81 -114 163 -100 48 8 171 83 202 123 34 44 50
145 41 264 -7 108 7 141 99 238 86 91 153 127 222 117 89 -12 91 -16 97 -205
3 -91 10 -194 16 -229 7 -54 6 -66 -6 -76 -10 -7 -14 -23 -12 -45 2 -27 8 -36
25 -38 19 -3 21 -6 11 -26 -14 -31 4 -64 40 -72 15 -4 40 -16 55 -26 41 -29
146 -45 185 -29 73 30 86 122 32 225 -36 69 -50 160 -50 347 0 130 -17 203
-58 259 -14 19 -30 37 -34 38 -4 2 -8 10 -8 17 0 22 -179 184 -234 211 -79 40
-173 27 -320 -47 -22 -10 -41 -17 -44 -15 -4 5 3 50 30 201 32 184 30 223 -21
281 -17 19 -31 41 -31 48 0 7 -11 18 -24 26 -13 7 -27 21 -29 31 -3 10 -11 20
-19 22 -7 2 -43 13 -80 25 -77 25 -141 28 -180 6z"/>
<path d="M10936 4559 c-10 -6 -32 -40 -48 -76 -44 -97 -93 -158 -140 -174 -55
-18 -88 -60 -88 -113 0 -23 6 -51 14 -62 8 -11 17 -37 21 -57 8 -40 47 -81
102 -103 31 -13 31 -15 18 -41 -21 -39 -19 -112 3 -136 15 -17 17 -42 15 -238
-2 -173 -6 -226 -18 -249 -8 -16 -15 -40 -15 -55 0 -16 -6 -25 -16 -25 -9 0
-18 -9 -21 -19 -3 -11 -15 -21 -27 -23 -17 -2 -22 -11 -24 -46 -3 -36 0 -44
15 -48 15 -4 18 -13 15 -39 -3 -23 2 -39 15 -52 10 -10 26 -35 35 -55 34 -73
83 -81 443 -69 361 13 415 28 541 156 83 84 115 143 149 280 28 112 27 157 -6
266 -16 51 -36 85 -86 145 -120 146 -193 191 -337 205 -138 13 -257 11 -286
-6 -14 -8 -29 -14 -34 -15 -5 0 -7 97 -3 240 7 254 5 276 -38 320 -14 14 -38
42 -56 63 -28 33 -36 37 -78 37 -25 0 -54 -5 -65 -11z m550 -1003 c28 -13 54
-28 58 -34 3 -5 -3 -35 -13 -67 -21 -64 -73 -125 -106 -125 -12 0 -37 -11 -56
-25 -19 -13 -43 -31 -54 -39 -11 -7 -49 -17 -84 -21 l-64 -6 6 38 c4 21 7 68
7 106 0 52 3 67 15 67 20 0 35 32 35 78 0 21 3 42 7 45 3 4 49 7 102 7 80 0
105 -4 147 -24z"/>
<path d="M2610 4110 c-36 -10 -87 -19 -113 -19 -67 -1 -82 -12 -102 -73 -9
-29 -46 -97 -81 -150 -53 -79 -64 -104 -64 -138 0 -27 5 -43 15 -46 9 -4 15
-19 15 -38 0 -47 23 -72 80 -86 62 -15 118 -6 154 25 16 13 45 30 65 36 20 7
58 27 85 46 27 18 51 31 54 28 9 -9 -196 -202 -233 -219 -18 -9 -43 -16 -56
-16 -34 0 -112 -88 -140 -157 -12 -32 -28 -67 -36 -78 -17 -26 -17 -115 1
-141 8 -11 17 -37 21 -57 9 -48 44 -84 90 -93 48 -9 140 19 176 52 62 59 137
91 245 104 149 19 283 -6 419 -78 39 -20 68 -27 132 -30 105 -6 142 2 189 38
174 132 234 199 234 263 0 46 -6 59 -33 73 -10 6 -25 26 -35 45 -17 33 -18 34
-77 33 -33 0 -96 -8 -140 -18 -135 -29 -264 -37 -326 -20 -30 8 -87 21 -128
27 l-73 12 113 85 c63 46 128 94 145 107 18 12 51 27 75 32 28 6 50 19 63 36
10 15 64 56 120 92 56 37 103 67 104 69 2 1 6 21 9 43 5 38 2 44 -31 75 -20
19 -36 41 -36 49 0 37 -92 67 -210 67 -47 0 -128 8 -180 17 -54 9 -170 17
-270 18 -145 2 -186 0 -240 -15z"/>
<path d="M10036 4049 c-63 -18 -84 -62 -112 -239 -9 -58 -27 -128 -40 -156
-13 -28 -24 -57 -24 -65 0 -47 -109 -159 -154 -159 -19 0 -29 -7 -35 -23 -11
-27 -34 -38 -147 -66 -85 -21 -138 -17 -163 13 -18 22 -30 151 -31 332 0 179
-8 227 -42 245 -11 6 -24 23 -29 38 -23 67 -172 107 -216 59 -38 -42 -38 -108
1 -508 21 -221 81 -378 178 -464 69 -62 92 -73 172 -86 131 -21 234 -2 411 76
12 5 40 -47 50 -91 9 -41 21 -53 62 -61 27 -5 47 0 89 21 40 20 62 26 86 21
141 -27 183 -17 233 57 49 72 47 154 -4 169 -7 2 -19 19 -25 38 -9 26 -19 36
-45 43 l-34 8 7 112 c3 62 11 166 16 232 23 274 23 283 10 315 -7 17 -21 35
-31 40 -10 6 -24 22 -31 37 -23 47 -98 78 -152 62z"/>
</g>
</svg>
