<?xml version="1.0" standalone="no"?>
<!DOCTYPE svg PUBLIC "-//W3C//DTD SVG 20010904//EN"
 "http://www.w3.org/TR/2001/REC-SVG-20010904/DTD/svg10.dtd">
<svg version="1.0" xmlns="http://www.w3.org/2000/svg"
 width="1380.000000pt" height="1380.000000pt" viewBox="0 0 1380.000000 1380.000000"
 preserveAspectRatio="xMidYMid meet">
<metadata>
Created by potrace 1.11, written by Peter Selinger 2001-2013
</metadata>
<g transform="translate(0.000000,1380.000000) scale(0.100000,-0.100000)"
fill="#000000" stroke="none">
<path d="M4375 10903 c-106 -19 -275 -76 -355 -120 -141 -77 -261 -198 -426
-428 -45 -62 -110 -161 -145 -220 -71 -120 -119 -165 -228 -217 -60 -29 -82
-33 -257 -49 -106 -10 -214 -21 -240 -24 -115 -17 -237 -89 -355 -212 -134
-138 -259 -304 -259 -344 0 -10 13 -25 30 -34 84 -43 294 15 428 118 73 57
105 73 173 85 100 19 190 -1 352 -78 207 -98 406 -94 582 10 83 50 220 183
276 268 44 67 58 97 89 197 19 61 84 193 131 265 68 104 200 229 289 272 130
64 240 67 312 8 51 -42 89 -129 69 -159 -8 -12 -15 -9 -42 17 -75 74 -169 89
-292 48 -99 -33 -168 -77 -234 -149 -64 -70 -101 -146 -121 -250 -41 -210 70
-393 279 -458 73 -23 171 -25 228 -4 83 29 169 124 208 229 l17 45 33 -68 c55
-114 178 -211 304 -240 24 -6 78 -11 120 -11 150 0 278 62 384 188 54 63 61
68 66 49 3 -12 13 -36 22 -53 l16 -32 -37 -6 c-101 -16 -160 -182 -104 -292
l20 -40 -21 -15 c-13 -8 -71 -18 -144 -25 -104 -9 -131 -15 -187 -43 -107 -53
-197 -173 -213 -286 -3 -25 -10 -45 -15 -45 -5 0 -24 11 -42 25 -17 13 -59 37
-92 52 -52 25 -71 28 -164 28 -98 0 -109 -2 -159 -30 -29 -16 -72 -51 -95 -77
l-41 -47 -85 34 c-132 53 -195 67 -325 72 -92 4 -136 1 -185 -11 -274 -69
-429 -292 -418 -600 l3 -99 -61 -13 c-131 -27 -240 -107 -286 -210 -23 -54
-34 -172 -20 -230 l9 -41 -41 15 c-23 9 -86 17 -141 20 -110 4 -187 -14 -267
-64 -22 -14 -41 -24 -41 -22 -74 151 -131 219 -227 266 -49 24 -67 27 -156 27
-97 0 -105 -2 -171 -36 l-70 -36 -12 80 c-15 96 -60 236 -106 333 -39 82 -122
165 -201 205 -42 20 -64 24 -149 24 -93 0 -105 -2 -167 -33 -75 -37 -154 -116
-193 -193 -70 -137 -106 -541 -71 -793 93 -662 548 -1360 1056 -1620 298 -153
564 -162 838 -29 127 62 220 190 244 337 31 187 -75 386 -249 469 -64 30 -75
32 -178 32 -103 0 -114 -2 -177 -32 -37 -17 -87 -50 -112 -73 l-46 -43 0 30
c0 51 29 128 65 176 70 92 207 161 317 159 121 -2 273 -68 387 -169 61 -53
105 -137 137 -258 26 -98 26 -329 0 -440 -20 -87 -67 -209 -102 -266 -58 -93
-211 -187 -375 -230 -65 -17 -111 -22 -204 -21 -212 1 -425 58 -680 182 -191
92 -310 170 -380 250 -155 176 -280 350 -339 473 -80 166 -213 604 -265 871
-55 279 -65 387 -65 686 0 291 10 414 60 740 97 629 287 1060 567 1282 l38 30
42 -39 c93 -86 180 -117 302 -111 67 3 95 10 147 36 122 60 224 195 259 342
17 70 17 200 0 270 -35 148 -137 282 -260 343 -61 30 -73 32 -171 32 -96 0
-110 -3 -165 -29 -81 -40 -173 -134 -216 -222 -18 -38 -59 -97 -91 -131 -88
-96 -331 -480 -436 -689 -209 -417 -347 -970 -392 -1574 -13 -176 -13 -585 1
-747 31 -386 114 -768 239 -1110 71 -191 231 -511 337 -673 354 -538 798 -869
1313 -981 70 -15 147 -22 292 -26 315 -9 440 18 703 150 211 105 475 333 639
551 158 210 254 433 244 569 l-4 58 -77 70 c-137 125 -182 261 -137 410 38
127 85 205 185 304 149 150 307 216 516 217 340 1 625 -219 709 -548 11 -43
20 -91 20 -107 0 -29 -1 -29 -37 -23 -101 18 -219 19 -278 1 -131 -37 -249
-135 -307 -253 -27 -55 -34 -81 -36 -147 -5 -113 21 -181 97 -256 78 -77 128
-93 271 -87 97 4 114 8 182 40 88 42 119 79 125 147 6 60 -13 90 -44 70 -47
-29 -109 47 -121 147 -4 39 -1 49 24 75 32 33 92 53 133 44 24 -5 30 -14 45
-68 19 -68 70 -205 93 -251 47 -91 158 -166 246 -166 30 0 49 -5 51 -12 2 -7
11 -44 20 -83 23 -95 73 -209 147 -331 117 -194 263 -338 419 -413 72 -35 79
-36 185 -36 106 0 113 1 185 36 156 75 302 219 419 413 74 122 124 236 147
331 9 39 18 76 20 83 2 7 21 12 51 12 88 0 199 75 246 166 23 46 74 183 93
251 15 54 21 63 45 68 41 9 101 -11 133 -44 25 -26 28 -36 24 -75 -12 -100
-74 -176 -121 -147 -31 20 -50 -10 -44 -70 6 -68 37 -105 125 -147 68 -32 85
-36 182 -40 143 -6 193 10 271 87 76 75 102 143 97 256 -2 66 -9 92 -36 147
-58 118 -176 216 -307 253 -59 18 -177 17 -277 -1 -37 -6 -38 -6 -38 23 0 16
9 64 20 107 84 329 369 549 709 548 209 -1 367 -67 516 -217 100 -99 147 -177
185 -304 45 -149 0 -285 -137 -410 l-77 -70 -4 -58 c-10 -136 86 -359 244
-569 164 -218 428 -446 639 -551 263 -132 388 -159 703 -150 214 6 306 21 482
77 190 61 426 194 604 339 97 80 267 254 357 366 245 304 469 753 588 1174 77
272 127 549 150 834 14 162 14 571 1 747 -45 604 -183 1157 -392 1574 -105
209 -348 593 -436 689 -32 34 -73 93 -91 131 -43 88 -135 182 -216 222 -55 26
-69 29 -165 29 -98 0 -110 -2 -171 -32 -123 -61 -225 -195 -260 -343 -17 -70
-17 -200 0 -270 35 -147 137 -282 259 -342 52 -26 80 -33 147 -36 122 -6 209
25 302 111 l42 39 38 -30 c280 -222 470 -653 567 -1282 50 -326 60 -449 60
-740 0 -299 -10 -407 -65 -686 -52 -267 -185 -705 -265 -871 -59 -123 -184
-297 -339 -473 -136 -154 -534 -349 -835 -410 -148 -30 -316 -30 -429 -1 -164
43 -317 137 -375 230 -35 57 -82 179 -102 266 -26 111 -26 342 0 440 32 121
76 205 137 258 114 101 266 167 387 169 110 2 247 -67 317 -159 36 -48 65
-125 65 -176 l0 -30 -46 43 c-25 23 -75 56 -112 73 -63 30 -74 32 -177 32
-103 0 -114 -2 -178 -32 -174 -83 -280 -282 -249 -469 24 -147 117 -275 244
-337 274 -133 540 -124 838 29 508 260 963 958 1056 1620 35 252 -1 656 -71
793 -39 77 -118 156 -193 193 -62 31 -74 33 -167 33 -85 0 -107 -4 -149 -24
-79 -40 -162 -123 -201 -205 -46 -97 -91 -237 -106 -333 l-12 -80 -70 36 c-66
34 -74 36 -171 36 -89 0 -107 -3 -156 -27 -96 -47 -153 -115 -227 -266 0 -2
-19 8 -41 22 -80 50 -157 68 -267 64 -55 -3 -118 -11 -141 -20 l-41 -15 9 41
c14 58 3 176 -20 230 -46 103 -155 183 -286 210 l-61 13 3 99 c11 308 -144
531 -418 600 -49 12 -93 15 -185 11 -130 -5 -193 -19 -325 -72 l-85 -34 -41
47 c-23 26 -66 61 -95 77 -50 28 -61 30 -159 30 -93 0 -112 -3 -164 -28 -33
-15 -75 -39 -92 -52 -18 -14 -37 -25 -42 -25 -5 0 -12 20 -15 45 -16 113 -106
233 -213 286 -56 28 -83 34 -187 43 -73 7 -131 17 -144 25 l-21 15 20 40 c56
110 -3 276 -104 292 l-37 6 16 32 c9 17 19 41 22 53 5 19 12 14 66 -49 106
-126 234 -188 384 -188 42 0 96 5 120 11 126 29 249 126 304 240 l33 68 17
-45 c39 -105 125 -200 208 -229 57 -21 155 -19 228 4 209 65 320 248 279 458
-20 104 -57 180 -121 250 -66 72 -135 116 -234 149 -123 41 -217 26 -292 -48
-27 -26 -34 -29 -42 -17 -20 30 18 117 69 159 72 59 182 56 312 -8 89 -43 221
-168 289 -272 47 -72 112 -204 131 -265 31 -100 45 -130 89 -197 56 -85 193
-218 276 -268 176 -104 375 -108 582 -10 162 77 252 97 352 78 68 -12 100 -28
173 -85 134 -103 344 -161 428 -118 17 9 30 24 30 34 0 40 -125 206 -259 344
-118 123 -240 195 -355 212 -26 3 -134 14 -240 24 -175 16 -197 20 -257 49
-109 52 -157 97 -228 217 -35 59 -100 158 -145 220 -219 306 -353 418 -596
499 -193 64 -403 84 -534 50 -222 -57 -406 -279 -406 -491 l0 -44 -27 21 c-43
31 -141 61 -219 67 -92 7 -188 -21 -259 -75 -44 -33 -117 -120 -151 -178 -10
-17 -14 -16 -58 23 -76 67 -140 87 -271 87 -89 0 -126 -5 -192 -25 l-82 -26
30 44 c122 178 48 378 -183 491 -130 64 -190 77 -363 77 -173 0 -233 -13 -363
-77 -231 -113 -305 -313 -183 -491 l30 -44 -82 26 c-66 20 -103 25 -192 25
-131 0 -195 -20 -271 -87 -44 -39 -48 -40 -58 -23 -34 58 -107 145 -151 178
-71 54 -167 82 -259 75 -78 -6 -176 -36 -218 -67 l-28 -21 0 44 c0 212 -184
434 -406 491 -76 20 -238 19 -349 -1z m2069 -887 c65 -32 150 -104 198 -168
70 -93 105 -266 74 -370 -22 -78 -49 -105 -173 -179 -293 -173 -518 -391 -630
-614 -155 -304 -153 -678 3 -907 130 -191 371 -331 688 -400 147 -32 455 -32
602 0 317 69 558 209 688 400 156 229 158 603 3 907 -112 223 -337 441 -630
614 -59 35 -119 77 -132 93 -38 45 -59 129 -51 209 14 149 65 249 176 343 135
115 225 128 403 56 85 -34 115 -51 144 -84 l38 -41 -85 -6 c-47 -3 -96 -11
-108 -18 -21 -11 -28 -9 -62 14 -85 59 -191 80 -249 50 -45 -23 -108 -102
-127 -157 -26 -80 -16 -154 31 -222 53 -77 202 -219 305 -291 110 -78 197
-160 268 -254 267 -354 332 -875 163 -1296 -71 -175 -134 -269 -279 -419 l-92
-95 0 -124 c0 -69 3 -133 6 -142 9 -22 57 -45 97 -45 51 0 132 -27 166 -56 17
-14 44 -53 60 -87 115 -237 6 -735 -200 -921 -69 -62 -113 -75 -183 -53 -80
26 -111 23 -125 -12 -10 -23 -9 -41 4 -92 26 -100 17 -225 -23 -312 -109 -236
-343 -440 -507 -440 -164 0 -398 204 -507 440 -40 87 -49 212 -23 312 13 51
14 69 4 92 -14 35 -45 38 -125 12 -70 -22 -114 -9 -183 53 -206 186 -315 684
-200 921 16 34 43 73 60 87 34 29 115 56 166 56 40 0 88 23 97 45 3 9 6 73 6
142 l0 124 -92 95 c-145 150 -208 244 -279 419 -169 421 -104 942 163 1296 71
94 158 176 268 254 103 72 252 214 305 291 47 68 57 142 31 222 -19 55 -82
134 -127 157 -58 30 -164 9 -249 -50 -34 -23 -41 -25 -62 -14 -12 7 -61 15
-108 18 l-85 6 38 41 c29 32 59 50 139 82 57 22 114 43 128 45 47 10 124 -2
174 -27z"/>
<path d="M6760 7194 c-232 -45 -412 -156 -508 -315 -12 -20 -40 -48 -61 -62
-247 -164 -309 -532 -132 -784 82 -116 207 -192 333 -201 l68 -5 0 -86 c0
-101 18 -180 63 -271 41 -84 133 -177 212 -216 55 -27 69 -29 170 -29 101 0
115 2 170 29 79 39 171 132 212 216 45 91 63 170 63 271 l0 86 68 5 c126 9
251 85 333 201 177 252 115 620 -132 784 -21 14 -49 42 -61 62 -61 101 -142
172 -266 235 -120 60 -198 78 -362 81 -80 2 -156 1 -170 -1z"/>
<path d="M4945 6316 c-108 -26 -221 -96 -297 -181 -166 -187 -190 -451 -61
-683 48 -88 149 -192 224 -232 54 -29 72 -33 164 -38 l103 -5 7 -60 c26 -234
215 -377 495 -377 172 0 313 54 408 154 66 69 93 142 99 266 6 107 -6 180 -41
257 -46 98 -179 173 -281 158 l-45 -7 29 -33 c35 -40 45 -80 36 -138 -27 -158
-115 -246 -247 -247 -68 0 -103 12 -141 48 -32 31 -71 96 -80 133 -9 35 -44
78 -73 90 -13 5 -52 11 -86 14 -82 8 -138 34 -192 89 -59 62 -84 117 -98 218
-24 177 31 347 157 486 36 41 64 79 62 85 -5 17 -82 18 -142 3z"/>
<path d="M8728 6324 c-14 -14 -9 -23 58 -96 125 -139 179 -309 156 -486 -14
-101 -39 -156 -98 -218 -54 -55 -110 -81 -192 -89 -34 -3 -73 -9 -86 -14 -29
-12 -64 -55 -73 -90 -9 -37 -48 -102 -80 -133 -38 -36 -73 -48 -141 -48 -132
1 -220 89 -247 247 -9 58 1 98 36 138 l29 33 -45 7 c-102 15 -235 -60 -281
-158 -35 -77 -47 -150 -41 -257 6 -124 33 -197 99 -266 95 -100 236 -154 408
-154 280 0 469 143 495 377 l7 60 103 5 c92 5 110 9 164 38 120 64 234 214
283 370 89 291 -74 608 -366 711 -63 22 -176 36 -188 23z"/>
<path d="M3172 4248 l3 -73 381 -5 382 -5 -414 -535 -414 -535 0 -62 0 -63
545 0 545 0 0 70 0 70 -435 2 -435 3 410 530 409 530 1 73 0 72 -490 0 -491 0
3 -72z"/>
<path d="M4370 3646 l0 -676 289 0 c221 0 307 4 363 15 174 37 316 142 388
289 64 130 75 186 75 376 0 142 -4 176 -23 245 -61 210 -184 335 -392 395 -68
20 -106 23 -387 27 l-313 6 0 -677z m622 513 c221 -47 323 -190 335 -469 12
-267 -68 -447 -232 -524 -95 -46 -163 -56 -372 -56 l-193 0 0 530 0 530 205 0
c114 0 227 -5 257 -11z"/>
<path d="M5700 3646 l0 -676 289 0 c221 0 307 4 363 15 174 37 316 142 388
289 64 130 75 186 75 376 0 142 -4 176 -23 245 -61 210 -184 335 -392 395 -68
20 -106 23 -387 27 l-313 6 0 -677z m622 513 c221 -47 323 -190 335 -469 12
-267 -68 -447 -232 -524 -95 -46 -163 -56 -372 -56 l-193 0 0 530 0 530 205 0
c114 0 227 -5 257 -11z"/>
<path d="M7020 3645 l0 -675 80 0 80 0 0 310 0 310 385 0 385 0 0 -310 0 -310
80 0 80 0 0 675 0 676 -77 -3 -78 -3 -3 -292 -2 -293 -385 0 -385 0 0 295 0
295 -80 0 -80 0 0 -675z"/>
<path d="M8383 3833 c4 -511 4 -517 51 -627 45 -107 153 -199 280 -239 95 -29
309 -31 401 -3 171 52 264 143 321 316 16 49 18 104 22 548 l3 492 -80 0 -80
0 -3 -477 c-4 -528 -5 -531 -71 -629 -103 -155 -445 -174 -586 -33 -49 48 -79
125 -91 227 -5 48 -10 273 -10 500 l0 412 -81 0 -80 0 4 -487z"/>
<path d="M9720 3645 l0 -675 349 0 c191 0 370 4 397 9 100 19 166 52 225 110
72 73 94 131 94 256 0 78 -4 97 -28 147 -35 71 -107 137 -176 162 l-52 19 49
28 c100 57 152 151 152 273 0 187 -121 309 -330 335 -46 6 -218 11 -382 11
l-298 0 0 -675z m684 520 c67 -18 105 -42 138 -88 20 -27 23 -44 23 -118 0
-77 -3 -90 -28 -128 -21 -31 -44 -50 -85 -69 -56 -27 -60 -27 -314 -30 l-258
-3 0 225 0 226 233 0 c176 0 247 -4 291 -15z m86 -601 c48 -22 105 -79 122
-123 6 -14 11 -55 11 -91 2 -116 -53 -189 -170 -227 -36 -12 -110 -17 -310
-20 l-263 -5 0 247 0 246 283 -3 c261 -3 285 -5 327 -24z"/>
</g>
</svg>
